<?xml version="1.0" standalone="no" ?>
<!DOCTYPE svg PUBLIC "-//W3C//DTD SVG 20010904//EN"
  "http://www.w3.org/TR/2001/REC-SVG-20010904/DTD/svg10.dtd">
<svg
  version="1.0"
  xmlns="http://www.w3.org/2000/svg"
  width="900.000000pt"
  height="500.000000pt"
  viewBox="0 0 900.000000 500.000000"
  preserveAspectRatio="xMidYMid meet"
>

<g
    transform="translate(0.000000,500.000000) scale(0.100000,-0.100000)"
    fill="#000000"
    stroke="none"
  >
<path
      d="M3900 3533 c-171 -29 -349 -158 -419 -305 -64 -136 -76 -316 -29
-467 28 -92 49 -131 135 -248 93 -129 123 -196 130 -291 5 -58 3 -75 -10 -85
-43 -34 -14 -107 44 -107 36 0 520 124 567 145 27 12 32 20 32 48 0 18 -5 38
-11 44 -20 20 0 78 56 159 127 186 143 212 168 274 34 86 47 164 47 275 0 163
-48 283 -160 395 -113 114 -260 171 -434 169 -50 -1 -102 -4 -116 -6z m290
-103 c164 -48 280 -173 326 -351 23 -88 15 -242 -16 -322 -22 -57 -94 -173
-145 -232 l-26 -30 6 60 c4 33 18 125 31 205 22 130 23 146 9 160 -14 13 -62
15 -350 15 -257 0 -337 -3 -347 -13 -10 -10 -5 -56 25 -240 20 -125 37 -231
37 -236 0 -5 -23 22 -50 60 -136 186 -163 242 -181 372 -54 388 288 666 681
552z m130 -557 c1 -27 -93 -622 -100 -641 -10 -22 -11 -22 -192 -20 l-183 3
-52 305 c-28 168 -52 317 -52 333 l-1 27 290 0 c160 0 290 -3 290 -7z"
    />
<path
      d="M3811 2758 c0 -13 3 -39 7 -59 l7 -37 80 37 c62 29 81 42 82 59 2 21
-2 22 -88 22 -86 0 -89 -1 -88 -22z"
    />
<path
      d="M4187 2699 l-58 -70 -41 33 c-22 18 -48 39 -59 47 -18 13 -19 12 -10
-12 6 -14 22 -49 36 -77 15 -29 25 -53 23 -55 -2 -1 -25 -14 -53 -28 l-50 -26
93 -1 92 0 0 -96 c0 -162 20 -115 57 131 17 121 31 220 30 221 -1 1 -28 -29
-60 -67z"
    />
<path
      d="M3834 2600 c3 -19 13 -90 22 -157 l17 -123 44 0 43 0 0 90 c0 92 -4
99 -39 80 -16 -8 -23 2 -55 68 -29 60 -36 69 -32 42z"
    />
<path
      d="M8492 2575 c-72 -22 -119 -61 -152 -128 -73 -146 -13 -324 129 -385
48 -20 156 -19 206 2 50 21 100 68 128 121 18 33 22 57 22 135 0 91 -1 97 -34
146 -39 58 -81 90 -147 110 -57 17 -95 17 -152 -1z m173 -44 c92 -41 148 -157
127 -260 -30 -141 -154 -218 -290 -182 -114 31 -187 173 -153 299 15 53 73
119 126 143 52 24 138 24 190 0z"
    />
<path
      d="M8490 2315 c0 -158 1 -165 20 -165 18 0 20 7 20 70 l0 70 29 0 c39 0
54 -21 59 -86 4 -46 7 -54 25 -54 18 0 19 5 14 61 -3 37 -12 68 -23 80 -16 17
-16 21 -1 37 27 30 26 103 -3 132 -16 16 -33 20 -80 20 l-60 0 0 -165z m118
108 c30 -41 6 -93 -43 -93 l-35 0 0 61 0 62 33 -7 c17 -3 38 -14 45 -23z"
    />
<path
      d="M5014 2521 c-49 -22 -79 -61 -95 -125 -15 -61 -6 -164 20 -214 11
-21 67 -83 125 -137 58 -53 114 -111 125 -129 41 -69 34 -166 -16 -205 -28
-23 -91 -28 -125 -10 -28 15 -48 69 -48 129 l0 50 -51 0 -51 0 7 -67 c8 -84
32 -141 74 -175 38 -32 81 -42 160 -36 116 8 175 82 175 218 -1 108 -27 153
-158 275 -116 107 -146 154 -146 228 0 59 16 95 51 113 44 22 85 17 120 -14
26 -23 33 -38 37 -80 l5 -52 48 0 c27 0 49 3 49 8 0 45 -25 133 -45 164 -49
73 -170 100 -261 59z"
    />
<path
      d="M160 2071 l0 -461 140 0 c157 0 190 8 233 59 44 53 48 88 45 424 l-3
314 -27 41 c-45 67 -71 76 -240 80 l-148 4 0 -461z m288 346 c12 -11 26 -41
31 -68 13 -61 14 -509 1 -564 -5 -22 -21 -50 -35 -62 -22 -20 -38 -23 -106
-23 l-79 0 0 371 0 371 84 -3 c64 -3 89 -8 104 -22z"
    />
<path
      d="M820 2070 l0 -460 50 0 50 0 0 195 0 195 63 0 c124 0 147 -35 147
-220 0 -168 1 -170 60 -170 l47 0 -4 98 c-8 216 -10 238 -27 270 -9 18 -33 43
-52 54 l-34 20 32 22 c50 33 72 86 76 191 6 143 -21 209 -102 246 -33 15 -66
19 -173 19 l-133 0 0 -460z m259 355 c16 -8 34 -28 40 -46 14 -39 15 -188 1
-223 -15 -39 -54 -58 -130 -64 l-70 -5 0 177 0 176 65 0 c39 0 78 -6 94 -15z"
    />
<path d="M1480 2070 l0 -460 50 0 50 0 0 460 0 460 -50 0 -50 0 0 -460z" />
<path
      d="M1820 2070 l0 -460 45 0 45 0 2 366 3 365 115 -365 114 -366 53 0 53
0 0 460 0 460 -45 0 -45 0 -2 -326 -3 -327 -104 327 -105 326 -63 0 -63 0 0
-460z"
    />
<path
      d="M2490 2070 l0 -460 50 0 50 0 0 150 c0 145 1 150 27 195 16 25 30 45
33 45 3 0 49 -88 103 -195 l97 -195 50 0 49 0 -28 63 c-16 34 -70 146 -119
249 l-91 188 115 205 c63 113 114 208 114 210 0 3 -22 5 -49 5 l-49 0 -113
-206 c-62 -113 -119 -213 -126 -222 -10 -14 -12 24 -13 206 l0 222 -50 0 -50
0 0 -460z"
    />
<path
      d="M5540 2070 l0 -460 45 0 45 0 2 362 3 362 75 -362 75 -363 49 3 50 3
72 358 c39 196 74 360 78 364 3 3 6 -159 6 -360 l0 -367 45 0 45 0 0 460 0
460 -69 0 c-46 0 -70 -4 -73 -12 -3 -7 -36 -169 -74 -360 -38 -192 -71 -348
-74 -348 -3 0 -39 162 -80 360 l-74 360 -73 0 -73 0 0 -460z"
    />
<path
      d="M6520 2522 c0 -4 -38 -208 -85 -452 -47 -245 -85 -451 -85 -457 0 -9
15 -13 43 -13 l43 0 18 95 18 95 119 0 c65 0 119 -1 119 -2 1 -2 8 -43 18 -93
l17 -90 53 -3 c48 -3 53 -1 48 15 -3 10 -41 209 -85 443 -45 234 -83 435 -86
448 -5 20 -11 22 -80 22 -41 0 -75 -4 -75 -8z m126 -382 l50 -260 -104 0 -104
0 5 28 c3 15 24 132 48 260 24 127 46 232 49 232 3 0 28 -117 56 -260z"
    />
<path
      d="M7070 2070 l0 -460 50 0 50 0 0 195 0 195 63 0 c80 0 121 -23 136
-77 6 -21 11 -90 11 -153 0 -158 1 -160 60 -160 l48 0 -4 63 c-2 34 -5 110 -8
169 -4 120 -23 165 -77 193 -16 9 -29 17 -29 19 0 2 16 13 35 25 53 31 69 76
69 201 1 121 -12 168 -55 204 -43 37 -89 46 -226 46 l-123 0 0 -460z m265 348
c31 -27 44 -78 45 -168 0 -118 -39 -158 -157 -159 l-53 -1 0 175 0 175 69 0
c58 0 74 -4 96 -22z"
    />
<path
      d="M7690 2485 l0 -45 85 0 85 0 0 -415 0 -415 50 0 50 0 0 415 0 415 85
0 85 0 0 45 0 45 -220 0 -220 0 0 -45z"
    />
<path
      d="M4012 1995 c-155 -42 -282 -81 -293 -91 -39 -36 -8 -104 48 -104 26
0 439 105 536 136 70 23 87 65 42 109 -13 14 -32 25 -42 24 -10 0 -141 -34
-291 -74z"
    />
<path
      d="M4170 1820 c-58 -16 -179 -48 -269 -71 -99 -26 -172 -50 -183 -61
-40 -40 -9 -98 53 -98 53 1 558 136 580 156 40 36 8 105 -48 103 -16 0 -75
-13 -133 -29z"
    />
<path
      d="M4070 1580 c-36 -10 -84 -23 -108 -30 -38 -10 -41 -13 -31 -31 15
-29 69 -59 107 -59 67 0 122 52 122 115 0 29 -4 30 -90 5z"
    />
</g>
</svg>
